<svg width="513" height="466" xmlns="http://www.w3.org/2000/svg" xmlns:xlink="http://www.w3.org/1999/xlink" xml:space="preserve" overflow="hidden"><g transform="translate(-3885 -3)"><path d="M4270.26 77.8393C4251.69 147.148 4281.59 215.378 4337.03 230.235 4281.59 215.378 4221.58 259.519 4203.01 328.828 4221.58 259.519 4191.69 191.29 4136.24 176.433 4191.69 191.29 4251.69 147.148 4270.26 77.8393Z" stroke="#D1D1D1" stroke-width="6.875" stroke-miterlimit="8" fill="#D1D1D1" fill-rule="evenodd"/><path d="M4278.05 24.1008C4280.84 13.7046 4285.91 6.02945 4289.37 6.95801 4292.84 7.88657 4293.39 17.0672 4290.6 27.4635 4287.82 37.8597 4282.75 45.5349 4279.29 44.6063 4275.82 43.6777 4275.27 34.4971 4278.05 24.1008Z" stroke="#D1D1D1" stroke-width="6.875" stroke-miterlimit="8" fill="#D1D1D1" fill-rule="evenodd"/><path d="M4182.89 379.263C4185.67 368.866 4190.74 361.191 4194.21 362.12 4197.67 363.048 4198.22 372.229 4195.44 382.625 4192.65 393.022 4187.59 400.697 4184.12 399.768 4180.65 398.84 4180.1 389.659 4182.89 379.263Z" stroke="#D1D1D1" stroke-width="6.875" stroke-miterlimit="8" fill="#D1D1D1" fill-rule="evenodd"/><path d="M4096.84 159.149C4105.85 161.563 4112.4 166.329 4111.47 169.795 4110.54 173.26 4102.48 174.112 4093.47 171.698 4084.46 169.284 4077.91 164.517 4078.84 161.052 4079.77 157.587 4087.83 156.734 4096.84 159.149Z" stroke="#D1D1D1" stroke-width="6.875" stroke-miterlimit="8" fill="#D1D1D1" fill-rule="evenodd"/><path d="M4376.44 247.519C4367.43 245.105 4360.88 240.338 4361.8 236.873 4362.73 233.407 4370.79 232.555 4379.8 234.97 4388.81 237.384 4395.36 242.15 4394.43 245.616 4393.5 249.081 4385.45 249.933 4376.44 247.519Z" stroke="#D1D1D1" stroke-width="6.875" stroke-miterlimit="8" fill="#D1D1D1" fill-rule="evenodd"/><path d="M4000.51 239.039C3987.46 287.753 4001.9 333.948 4032.77 342.219 4001.9 333.948 3966.29 366.733 3953.24 415.447 3966.29 366.733 3951.85 320.538 3920.99 312.268 3951.85 320.538 3987.46 287.753 4000.51 239.039Z" stroke="#D1D1D1" stroke-width="6.875" stroke-miterlimit="8" fill="#D1D1D1" fill-rule="evenodd"/><path d="M4006.89 201.511C4008.85 194.204 4012 188.699 4013.93 189.216 4015.86 189.733 4015.83 196.075 4013.87 203.383 4011.92 210.69 4008.76 216.194 4006.84 215.677 4004.91 215.16 4004.93 208.818 4006.89 201.511Z" stroke="#D1D1D1" stroke-width="6.875" stroke-miterlimit="8" fill="#D1D1D1" fill-rule="evenodd"/><path d="M3940 451.137C3941.96 443.83 3945.11 438.325 3947.04 438.842 3948.97 439.359 3948.94 445.701 3946.99 453.009 3945.03 460.316 3941.88 465.82 3939.95 465.303 3938.02 464.786 3938.04 458.444 3940 451.137Z" stroke="#D1D1D1" stroke-width="6.875" stroke-miterlimit="8" fill="#D1D1D1" fill-rule="evenodd"/><path d="M3899.29 301.728C3904.31 303.072 3907.85 306.136 3907.19 308.572 3906.54 311.008 3901.95 311.893 3896.93 310.549 3891.91 309.205 3888.38 306.141 3889.03 303.705 3889.68 301.269 3894.28 300.384 3899.29 301.728Z" stroke="#D1D1D1" stroke-width="6.875" stroke-miterlimit="8" fill="#D1D1D1" fill-rule="evenodd"/><path d="M4054.46 352.758C4049.44 351.414 4045.91 348.35 4046.56 345.914 4047.21 343.479 4051.81 342.594 4056.82 343.938 4061.84 345.282 4065.37 348.346 4064.72 350.781 4064.07 353.217 4059.47 354.102 4054.46 352.758Z" stroke="#D1D1D1" stroke-width="6.875" stroke-miterlimit="8" fill="#D1D1D1" fill-rule="evenodd"/></g></svg>