<svg width="594" height="473" xmlns="http://www.w3.org/2000/svg" xmlns:xlink="http://www.w3.org/1999/xlink" xml:space="preserve" overflow="hidden"><g transform="translate(-2158 3)"><path d="M2358.5 130.5C2358.5 58.7029 2445.8 0.499836 2553.5 0.499836 2661.2 0.499836 2748.5 58.7029 2748.5 130.5 2748.5 202.297 2661.2 260.5 2553.5 260.5 2445.8 260.5 2358.5 202.297 2358.5 130.5Z" stroke="#D1D1D1" stroke-width="6.875" stroke-miterlimit="8" fill="#D1D1D1" fill-rule="evenodd"/><path d="M130 260C58.2029 260 0 201.797 0 130-1.65507e-14 58.2029 58.2029-1.65507e-14 130-3.31015e-14 58.203 53.8477 43.6522 155.703 97.4999 227.5 106.739 239.818 117.682 250.761 130 260Z" stroke="#D1D1D1" stroke-width="6.875" stroke-miterlimit="8" fill="#D1D1D1" fill-rule="evenodd" transform="matrix(-1 0 0 1 2597.5 52.5001)"/><path d="M0 87C-1.6678e-14 38.9512 58.6507-1.10763e-14 131-2.21525e-14 203.349-4.4305e-14 262 38.9512 262 87 262 135.049 203.349 174 131 174 58.6507 174-8.33902e-14 135.049 0 87Z" stroke="#D1D1D1" stroke-width="6.875" stroke-miterlimit="8" fill="#D1D1D1" fill-rule="evenodd" transform="matrix(-1 0 0 1 2423.5 260.5)"/><path d="M2380.5 466.5C2331.9 466.5 2292.5 427.325 2292.5 379 2292.5 330.675 2331.9 291.5 2380.5 291.5 2331.9 327.744 2322.05 396.3 2358.5 444.625 2364.75 452.916 2372.16 460.282 2380.5 466.5Z" stroke="#D1D1D1" stroke-width="6.875" stroke-miterlimit="8" fill="#D1D1D1" fill-rule="evenodd"/></g></svg>