<svg width="695" height="498" xmlns="http://www.w3.org/2000/svg" xmlns:xlink="http://www.w3.org/1999/xlink" xml:space="preserve" overflow="hidden"><g transform="translate(-2946 18)"><path d="M3292.09 205.394C3305.36 155.867 3366.3 129.165 3428.21 145.753 3490.12 162.342 3529.55 215.938 3516.27 265.465 3503 314.992 3442.06 341.694 3380.15 325.105 3318.24 308.517 3278.81 254.92 3292.09 205.394Z" stroke="#D1D1D1" stroke-width="6.875" stroke-miterlimit="8" fill="#D1D1D1" fill-rule="evenodd"/><path d="M3216.34 98.4688C3222.97 73.7055 3248.42 59.0099 3273.19 65.6452 3297.95 72.2805 3312.65 97.734 3306.01 122.497 3299.38 147.261 3273.92 161.956 3249.16 155.321 3224.4 148.686 3209.7 123.232 3216.34 98.4688Z" stroke="#D1D1D1" stroke-width="6.875" stroke-miterlimit="8" fill="#D1D1D1" fill-rule="evenodd"/><path d="M3330.05 29.3437C3338.34-1.61045 3370.16-19.98 3401.11-11.6859 3432.07-3.39174 3450.44 28.4253 3442.14 59.3795 3433.85 90.3337 3402.03 108.703 3371.08 100.409 3340.12 92.115 3321.75 60.2979 3330.05 29.3437Z" stroke="#D1D1D1" stroke-width="6.875" stroke-miterlimit="8" fill="#D1D1D1" fill-rule="evenodd"/><path d="M3459.33 63.9851C3467.62 33.0309 3499.44 14.6613 3530.39 22.9555 3561.35 31.2496 3579.72 63.0667 3571.42 94.0208 3563.13 124.975 3531.31 143.345 3500.36 135.05 3469.4 126.756 3451.03 94.9392 3459.33 63.9851Z" stroke="#D1D1D1" stroke-width="6.875" stroke-miterlimit="8" fill="#D1D1D1" fill-rule="evenodd"/><path d="M3545.66 186.711C3552.3 161.948 3577.75 147.252 3602.51 153.888 3627.28 160.523 3641.97 185.977 3635.34 210.74 3628.7 235.503 3603.25 250.199 3578.49 243.563 3553.72 236.928 3539.03 211.475 3545.66 186.711Z" stroke="#D1D1D1" stroke-width="6.875" stroke-miterlimit="8" fill="#D1D1D1" fill-rule="evenodd"/><path d="M3049.6 446.149C3030.68 413.368 3048.55 367.615 3089.53 343.957 3130.5 320.3 3179.06 327.696 3197.99 360.477 3216.92 393.258 3199.04 439.011 3158.07 462.669 3117.09 486.326 3068.53 478.93 3049.6 446.149Z" stroke="#D1D1D1" stroke-width="6.875" stroke-miterlimit="8" fill="#D1D1D1" fill-rule="evenodd"/><path d="M2954.24 429.875C2944.78 413.484 2950.4 392.526 2966.79 383.063 2983.18 373.599 3004.14 379.215 3013.6 395.606 3023.06 411.997 3017.45 432.955 3001.06 442.418 2984.67 451.882 2963.71 446.266 2954.24 429.875Z" stroke="#D1D1D1" stroke-width="6.875" stroke-miterlimit="8" fill="#D1D1D1" fill-rule="evenodd"/><path d="M2977.52 334.432C2965.69 313.944 2972.71 287.745 2993.2 275.916 3013.69 264.087 3039.88 271.107 3051.71 291.596 3063.54 312.084 3056.52 338.282 3036.03 350.111 3015.54 361.94 2989.35 354.92 2977.52 334.432Z" stroke="#D1D1D1" stroke-width="6.875" stroke-miterlimit="8" fill="#D1D1D1" fill-rule="evenodd"/><path d="M3063.09 285.027C3051.26 264.539 3058.28 238.341 3078.77 226.512 3099.26 214.683 3125.45 221.703 3137.28 242.191 3149.11 262.679 3142.09 288.877 3121.6 300.706 3101.12 312.535 3074.92 305.515 3063.09 285.027Z" stroke="#D1D1D1" stroke-width="6.875" stroke-miterlimit="8" fill="#D1D1D1" fill-rule="evenodd"/><path d="M3172.22 304.025C3162.76 287.635 3168.37 266.676 3184.76 257.213 3201.16 247.75 3222.11 253.366 3231.58 269.756 3241.04 286.147 3235.42 307.106 3219.03 316.569 3202.64 326.032 3181.68 320.416 3172.22 304.025Z" stroke="#D1D1D1" stroke-width="6.875" stroke-miterlimit="8" fill="#D1D1D1" fill-rule="evenodd"/></g></svg>